<svg id="icons-export" xmlns="http://www.w3.org/2000/svg" viewBox="0 0 504 504"><defs><style>.cls-1{fill:#f9f9f9;}.cls-2{fill:#0d1e2a;}.cls-3{fill:#e1523d;}.cls-4{fill:#fff;}</style></defs><title>icon-seo-3</title><circle class="cls-1" cx="252" cy="252" r="251.5"/><rect class="cls-2" x="166.44" y="77.19" width="20.24" height="3.5"/><rect class="cls-2" x="156.83" y="87.46" width="28.29" height="3.5"/><rect class="cls-2" x="170.43" y="97.73" width="16.46" height="3.5"/><circle class="cls-3" cx="200.54" cy="89.21" r="20.25"/><path class="cls-1" d="M200.54,111.21a22,22,0,1,1,22-22A22,22,0,0,1,200.54,111.21Zm0-40.5A18.5,18.5,0,1,0,219,89.21,18.52,18.52,0,0,0,200.54,70.71Z"/><path class="cls-4" d="M198.46,93.12l-1.25-15.23h6.66l-1.25,15.23Zm-1.08,9v-6h6.32v6Z"/><rect class="cls-2" x="381.64" y="178.49" width="20.24" height="3.5"/><rect class="cls-2" x="372.03" y="188.76" width="28.29" height="3.5"/><rect class="cls-2" x="385.64" y="199.02" width="16.46" height="3.5"/><circle class="cls-3" cx="415.74" cy="190.51" r="20.25"/><path class="cls-1" d="M415.74,212.5a22,22,0,1,1,22-22A22,22,0,0,1,415.74,212.5Zm0-40.49a18.5,18.5,0,1,0,18.5,18.5A18.52,18.52,0,0,0,415.74,172Z"/><path class="cls-4" d="M413.67,194.42l-1.25-15.23h6.65l-1.25,15.23Zm-1.08,9v-6h6.31v6Z"/><rect class="cls-2" x="245.44" y="188" width="20.24" height="3.5"/><rect class="cls-2" x="235.83" y="198.26" width="28.29" height="3.5"/><rect class="cls-2" x="249.43" y="208.53" width="16.46" height="3.5"/><circle class="cls-3" cx="279.54" cy="200.01" r="20.25"/><path class="cls-1" d="M279.54,222a22,22,0,1,1,22-22A22,22,0,0,1,279.54,222Zm0-40.49A18.5,18.5,0,1,0,298,200,18.51,18.51,0,0,0,279.54,181.52Z"/><path class="cls-4" d="M277.46,203.92l-1.25-15.23h6.66l-1.25,15.23Zm-1.08,9v-6.05h6.32v6.05Z"/><rect class="cls-2" x="79.22" y="269.64" width="20.24" height="3.5"/><rect class="cls-2" x="69.6" y="279.9" width="28.29" height="3.5"/><rect class="cls-2" x="83.21" y="290.17" width="16.46" height="3.5"/><circle class="cls-3" cx="113.32" cy="281.65" r="20.25"/><path class="cls-1" d="M113.32,303.65a22,22,0,1,1,22-22A22,22,0,0,1,113.32,303.65Zm0-40.49a18.5,18.5,0,1,0,18.49,18.49A18.51,18.51,0,0,0,113.32,263.16Z"/><path class="cls-4" d="M111.24,285.56,110,270.33h6.65l-1.25,15.23Zm-1.08,9v-6.05h6.32v6.05Z"/><rect class="cls-2" x="266.93" y="402.77" width="20.24" height="3.5"/><rect class="cls-2" x="257.32" y="413.04" width="28.29" height="3.5"/><rect class="cls-2" x="270.92" y="423.31" width="16.46" height="3.5"/><circle class="cls-3" cx="301.03" cy="414.79" r="20.25"/><path class="cls-1" d="M301,436.79a22,22,0,1,1,22-22A22,22,0,0,1,301,436.79Zm0-40.5a18.5,18.5,0,1,0,18.5,18.5A18.51,18.51,0,0,0,301,396.29Z"/><path class="cls-4" d="M299,418.7l-1.25-15.23h6.65l-1.25,15.23Zm-1.08,9v-6.05h6.31v6.05Z"/><rect class="cls-2" x="88.28" y="160.02" width="41.85" height="3.5"/><rect class="cls-2" x="66.26" y="183.54" width="60.28" height="3.5"/><rect class="cls-2" x="97.43" y="207.06" width="33.2" height="3.5"/><circle class="cls-2" cx="155.06" cy="185.29" r="37.05"/><path class="cls-1" d="M155.06,224.09a38.81,38.81,0,1,1,38.8-38.8A38.84,38.84,0,0,1,155.06,224.09Zm0-74.11a35.31,35.31,0,1,0,35.3,35.31A35.34,35.34,0,0,0,155.06,150Z"/><polygon class="cls-4" points="149.57 201.59 134.67 188.4 136.99 185.78 149.42 196.79 173.05 173.16 175.53 175.64 149.57 201.59"/><rect class="cls-2" x="114.46" y="346.52" width="38.45" height="3.5"/><rect class="cls-2" x="94.39" y="367.95" width="55.25" height="3.5"/><rect class="cls-2" x="122.79" y="389.39" width="30.56" height="3.5"/><circle class="cls-2" cx="175.47" cy="369.7" r="33.77"/><path class="cls-1" d="M175.47,405.22A35.52,35.52,0,1,1,211,369.7,35.55,35.55,0,0,1,175.47,405.22Zm0-67.53a32,32,0,1,0,32,32A32,32,0,0,0,175.47,337.69Z"/><polygon class="cls-4" points="170.47 384.78 156.79 372.66 159.11 370.04 170.32 379.97 191.75 358.54 194.23 361.02 170.47 384.78"/><rect class="cls-2" x="290.84" y="80.33" width="38.45" height="3.5"/><rect class="cls-2" x="270.77" y="101.76" width="55.25" height="3.5"/><rect class="cls-2" x="299.17" y="123.19" width="30.56" height="3.5"/><circle class="cls-2" cx="351.85" cy="103.51" r="33.77"/><path class="cls-1" d="M351.85,139a35.52,35.52,0,1,1,35.51-35.52A35.56,35.56,0,0,1,351.85,139Zm0-67.54a32,32,0,1,0,32,32A32.06,32.06,0,0,0,351.85,71.49Z"/><polygon class="cls-4" points="346.85 118.58 333.16 106.46 335.48 103.84 346.7 113.78 368.13 92.35 370.6 94.83 346.85 118.58"/><rect class="cls-2" x="286.1" y="267.46" width="58.03" height="3.5"/><rect class="cls-2" x="254.78" y="300.9" width="84.24" height="3.5"/><rect class="cls-2" x="299.1" y="334.34" width="45.72" height="3.5"/><circle class="cls-2" cx="380.31" cy="302.65" r="52.68"/><path class="cls-1" d="M380.31,357.08a54.43,54.43,0,1,1,54.43-54.43A54.5,54.5,0,0,1,380.31,357.08Zm0-105.36a50.93,50.93,0,1,0,50.93,50.93A51,51,0,0,0,380.31,251.72Z"/><polygon class="cls-4" points="372.46 324.82 351.81 306.52 354.13 303.9 372.32 320.02 406.41 285.93 408.88 288.4 372.46 324.82"/></svg>