<svg xmlns="http://www.w3.org/2000/svg" width="80.335" height="79.84" viewBox="0 0 80.335 79.84">
  <g id="Group_103" data-name="Group 103" transform="translate(0 0)">
    <path id="Path_210" data-name="Path 210" d="M750.681,126.442c-1.345,0-2.562.006-3.779,0a4,4,0,0,1-4.2-4.165q-.013-10.472,0-20.945a3.988,3.988,0,0,1,4.184-4.176c1.218-.008,2.437,0,3.646,0,.255-.318.128-.662.143-.98a29.329,29.329,0,0,1,.132-4.228,6.568,6.568,0,0,1,6.444-5.423q20.53-.029,41.059-.016a1.824,1.824,0,0,1,1.455.649q5.8,6.464,11.619,12.912a1.979,1.979,0,0,1,.514,1.436,59.452,59.452,0,0,0,.188,6.083c.326-.358.633-.736.982-1.071a1.326,1.326,0,0,1,2.109-.033q3.693,3.653,7.346,7.347c.734.743.669,1.4-.156,2.225q-4.9,4.914-9.814,9.815c-.215.215-.461.4-.66.569v1.089q0,15.792,0,31.584c0,4.492-2.751,7.235-7.254,7.236q-23.521,0-47.043,0a6.633,6.633,0,0,1-6.834-5.667,8.946,8.946,0,0,1-.077-1.49q-.006-15.833,0-31.667Zm2.686.017v.8q0,16.043,0,32.085a4.009,4.009,0,0,0,4.3,4.311q23.608.005,47.215,0a4.006,4.006,0,0,0,4.315-4.3q.007-14.63,0-29.26c0-.225.118-.491-.245-.792a7.056,7.056,0,0,1-.558.719q-10.075,10.087-20.154,20.169a4.006,4.006,0,0,1-1.438.947q-5.66,2.158-11.309,4.344a1.426,1.426,0,0,1-1.974-1.989q2.169-5.612,4.312-11.234a4.372,4.372,0,0,1,1.042-1.57q14.851-14.832,29.691-29.675a5.333,5.333,0,0,1,.587-.468v-7.968a.905.905,0,0,0-.2-.064c-2.494-.006-4.987,0-7.481-.015a4.007,4.007,0,0,1-4.232-4.216c-.009-2.716,0-5.431-.007-8.146a1.46,1.46,0,0,0-.13-.937H785.418q-13.923,0-27.847,0a3.9,3.9,0,0,0-4.133,3.418,44.405,44.405,0,0,0-.03,4.533h1.026q14.589,0,29.177,0a4.013,4.013,0,0,1,4.338,4.36q.005,10.266,0,20.532a4.03,4.03,0,0,1-4.389,4.395c-3.99,0-7.98,0-11.97.006a1.4,1.4,0,0,0-.932.133v.878c0,1.829,0,3.658,0,5.486a1.342,1.342,0,0,1-.869,1.375,1.328,1.328,0,0,1-1.514-.367c-.2-.192-.393-.39-.589-.586l-6.909-6.907Zm14.605,3.179c0-1.376,0-2.722,0-4.067,0-1.4.418-1.814,1.842-1.814q6.816,0,13.632,0c1.4,0,1.816-.422,1.816-1.845q0-10.1,0-20.2c0-1.471-.4-1.871-1.872-1.871H747.234c-1.428,0-1.846.409-1.846,1.812q0,10.141,0,20.282c0,1.408.418,1.82,1.838,1.821,4.461,0,8.922.02,13.382-.016a2.744,2.744,0,0,1,2.2.9c1.45,1.527,2.961,2.994,4.455,4.478C767.45,129.3,767.587,129.558,767.972,129.638ZM810.1,116.793l-1.63-1.734-26.984,26.978,1.593,1.794Zm2.29,2.023-27.172,27.132,1.544,1.647,27.169-27.166Zm-1.794-5.867,5.385,5.384,3.543-3.521-5.389-5.407Zm-10.508-21.4c-.069.052-.142.081-.142.11-.008,2.294-.027,4.588,0,6.881a1.155,1.155,0,0,0,1.117,1.235c2.083.058,4.169.021,6.444.021ZM784.3,149.2l-4.5-4.507-.939,2.451,3,2.983Zm-5.32,2.039a6.449,6.449,0,0,0-1.243-1.189l-.7,1.92Z" transform="translate(-742.697 -86.506)" fill="#fff"/>
    <path id="Path_211" data-name="Path 211" d="M778.779,197.152v-2.573h29.2v2.573Z" transform="translate(-770.765 -170.574)" fill="#fff"/>
    <path id="Path_212" data-name="Path 212" d="M778.783,221.107v-2.572h29.2v2.572Z" transform="translate(-770.768 -189.209)" fill="#fff"/>
    <path id="Path_213" data-name="Path 213" d="M802.728,173.2v-2.575H826.6a23.379,23.379,0,0,1,.078,2.575Z" transform="translate(-789.394 -151.938)" fill="#fff"/>
    <path id="Path_214" data-name="Path 214" d="M781.511,170.649v2.563h-2.592v-2.563Z" transform="translate(-770.873 -151.959)" fill="#fff"/>
  </g>
</svg>
