<svg xmlns="http://www.w3.org/2000/svg" width="73.758" height="73.708" viewBox="0 0 73.758 73.708">
  <g id="Group_105" data-name="Group 105" transform="translate(-777.289 -254.266)">
    <path id="Path_215" data-name="Path 215" d="M777.289,429.66v-2.386h10.636V408.313c-.73-.172-1.479.015-2.255-.12V401.14h4.711c0-1.571-.023-3.051.005-4.53a4.631,4.631,0,0,1,3.2-4.423c1.108-.384,2.25-.669,3.377-1l1.681-.49a15.239,15.239,0,0,0,.07-2.052c-2.952-2.956-2.914-6.531-1.925-10.1,1.271-4.59,7.381-6.3,11.06-3.263a7.118,7.118,0,0,1,2.745,5.762,28.023,28.023,0,0,1-.075,3.237,6.854,6.854,0,0,1-2.237,4.25V390.7c1.428.409,2.821.845,4.234,1.205a4.972,4.972,0,0,1,4.031,4.392H823.3c.958-.978,2.011-2.061,3.074-3.133,1.044-1.052,2.1-2.092,3.2-3.187a7.459,7.459,0,0,1-3.7-3.1,6.894,6.894,0,0,1-.976-3.275c-.092-2.161-.168-4.3.955-6.3a7.139,7.139,0,0,1,13.3,3.657,21.682,21.682,0,0,1-.1,3.524,7.2,7.2,0,0,1-2.19,4.034c2.172,1.221,2.45,3.221,2.274,5.444h4.638a1.155,1.155,0,0,1,.142.772q0,7.167,0,14.334a8.326,8.326,0,0,1-3.984,7.447,8.013,8.013,0,0,1-3.032,1.127l.942,9.464a.643.643,0,0,0,.537.161q6.122,0,12.245,0a3.725,3.725,0,0,0,.427-.048v2.449ZM790.436,413v14.229h2.78l2.369-4.693H816.1l2.349,4.664h2.792V412.977H796.348v-2.342H821.26a14.472,14.472,0,0,0,0-2.353h-30.82v2.37h3.474V413Zm8.9-20.017c-1.7.508-3.4,1-5.087,1.531a1.918,1.918,0,0,0-1.35,1.48,34.287,34.287,0,0,0-.153,5.07h16.844a3.59,3.59,0,0,1,.858-3.648c.971-1.04,2.268-1.088,3.6-1.082a1.972,1.972,0,0,0-1.212-1.751c-1.713-.681-3.519-1.064-5.251-1.571C804.99,396,801.664,395.732,799.333,392.978ZM823.708,410.6c.27.013.48.031.69.031,2.806,0,5.612.007,8.418,0a3.635,3.635,0,0,0,3.953-3.937c.007-2.23,0-4.461,0-6.691v-7.388a7.034,7.034,0,0,1-1.994,2.676c-1.737,1.723-3.457,3.462-5.194,5.185-.781.774-1.585,1.525-2.312,2.222v5.582h-3.563ZM798.747,382.1c0,.475-.022.956,0,1.434a4.712,4.712,0,0,0,9.227,1.073,10.8,10.8,0,0,0,.146-4.354,4.4,4.4,0,0,0-3.278-3.875,4.523,4.523,0,0,0-4.906,1.348A5.391,5.391,0,0,0,798.747,382.1Zm38.02.124c0-.521.016-.929,0-1.336a4.746,4.746,0,1,0-9.489.133c-.011.887-.029,1.777.03,2.661a4.658,4.658,0,0,0,3.257,4.071,4.712,4.712,0,0,0,5.074-1.449A5.592,5.592,0,0,0,836.767,382.228Zm-48.741,23.591H824.81v-2.291H788.047A12.622,12.622,0,0,0,788.026,405.819Zm35.685,9.515a2.649,2.649,0,0,0,.324.046c3.84,0,7.679.013,11.519-.008a5.644,5.644,0,0,0,2.572-.591,5.941,5.941,0,0,0,3.4-5.65c.018-4.008.006-8.015,0-12.023,0-.23.074-.48-.095-.694h-2.189a1.945,1.945,0,0,0-.088.891c-.021,3.431.031,6.864-.074,10.293a5.693,5.693,0,0,1-5.295,5.334c-3.068.109-6.142.052-9.213.074a1.42,1.42,0,0,0-.861.111Zm.516-16.609h-10.6a3.031,3.031,0,0,0-1,.1,1.155,1.155,0,0,0-.046,2.181,2.678,2.678,0,0,0,.995.11h11.987c2.79-2.794,5.542-5.54,8.281-8.3a1.335,1.335,0,1,0-1.885-1.852c-.726.7-1.431,1.42-2.141,2.134Q827.027,395.9,824.227,398.725Zm5.516,19.087h-6.012V427.2h6.95C830.365,424.036,830.055,420.938,829.743,417.812Zm-33.814,9.382h19.827l-1.123-2.246H797.042Zm37.167.051a15.271,15.271,0,0,0,2.343-.045l-.937-9.385h-2.347ZM805.73,390.014a7.329,7.329,0,0,1-4.561.01,1.862,1.862,0,0,0,.949,2.288,2.213,2.213,0,0,0,2.681.007A1.87,1.87,0,0,0,805.73,390.014Z" transform="translate(0 -101.687)" fill="#fff"/>
    <path id="Path_216" data-name="Path 216" d="M997.507,266.116h-11.39l-8.758,7.291v-7.266h-8.323V254.266h28.47Zm-26.059-2.363h8.343v4.509l5.492-4.57h9.862v-7.017h-23.7Z" transform="translate(-163.179 0)" fill="#fff"/>
    <path id="Path_217" data-name="Path 217" d="M1042.1,286.07v2.309h-9.444a12.065,12.065,0,0,1-.017-2.309Z" transform="translate(-217.265 -27.065)" fill="#fff"/>
    <path id="Path_218" data-name="Path 218" d="M1000.982,286.077h2.343v2.31a16.929,16.929,0,0,1-2.343.05Z" transform="translate(-190.365 -27.071)" fill="#fff"/>
    <path id="Path_219" data-name="Path 219" d="M1115.249,286.081V288.4a14.307,14.307,0,0,1-2.3.029v-2.344Z" transform="translate(-285.652 -27.075)" fill="#fff"/>
  </g>
</svg>
