<svg width="30" height="30" viewBox="0 0 30 30" fill="none" xmlns="http://www.w3.org/2000/svg">
<mask id="mask0" mask-type="alpha" maskUnits="userSpaceOnUse" x="0" y="0" width="30" height="30">
<path d="M15 30C23.2843 30 30 23.2843 30 15C30 6.71573 23.2843 0 15 0C6.71573 0 0 6.71573 0 15C0 23.2843 6.71573 30 15 30Z" fill="white"/>
</mask>
<g mask="url(#mask0)">
<path d="M15 30C23.2843 30 30 23.2843 30 15C30 6.71573 23.2843 0 15 0C6.71573 0 0 6.71573 0 15C0 23.2843 6.71573 30 15 30Z" fill="#5333ED"/>
<path d="M22.2743 10.5812C22.3983 10.6151 22.5174 10.6646 22.6288 10.7287L22.7488 10.6687C22.7174 10.5614 22.7174 10.4474 22.7488 10.3402C22.7741 10.2364 22.8266 10.1413 22.9009 10.0645C22.9752 9.98783 23.0686 9.93232 23.1715 9.90374C23.2744 9.87515 23.3831 9.87454 23.4863 9.90195C23.5896 9.92936 23.6836 9.98381 23.7588 10.0597C23.8664 10.1681 23.9289 10.3133 23.9338 10.4661C23.9386 10.6188 23.8854 10.7676 23.7848 10.8827C23.8903 10.9953 23.9653 11.1329 24.0028 11.2826C24.0402 11.4323 24.0387 11.5891 23.9986 11.7381C23.9584 11.8871 23.8808 12.0234 23.7733 12.134C23.6657 12.2446 23.5316 12.3259 23.3838 12.3702V12.4437C23.3327 12.6372 23.2441 12.8188 23.1228 12.9781C23.0016 13.1373 22.8502 13.2712 22.6772 13.3719C22.5043 13.4727 22.3132 13.5384 22.1149 13.5653C21.9165 13.5922 21.7148 13.5797 21.5213 13.5287C21.3277 13.4776 21.1462 13.389 20.9869 13.2677C20.8276 13.1465 20.6938 12.9951 20.593 12.8221C20.4923 12.6492 20.4266 12.4581 20.3997 12.2598C20.3728 12.0614 20.3852 11.8597 20.4363 11.6662C20.538 11.2751 20.7909 10.9404 21.1393 10.7357C21.4877 10.531 21.9032 10.4731 22.2943 10.5747L22.2743 10.5812Z" fill="#0C022F"/>
<path d="M5.96997 19.3447C5.96997 19.3447 6.37097 43.6792 -7.12553 35.4782C-7.37794 35.3243 -7.67598 35.2629 -7.96866 35.3045C-8.26135 35.3461 -8.53049 35.4881 -8.73003 35.7062C-9.39853 36.4497 -9.34503 38.1182 -8.89703 38.4397C-1.33003 43.9337 9.37897 43.3372 10.168 27.1297L5.96997 19.3447Z" fill="url(#paint0_linear)"/>
<path d="M6.12368 21.9042C5.81368 21.0026 5.72319 20.04 5.85971 19.0965C5.99624 18.1529 6.35584 17.2555 6.90868 16.4787C7.46045 15.703 8.18986 15.0706 9.03595 14.6344C9.88204 14.1981 10.8203 13.9708 11.7722 13.9712C12.6822 14.0762 13.5782 14.2762 14.4462 14.5677C17.5147 15.6997 22.0132 18.1322 24.7812 19.4387C26.7606 20.3604 28.5251 21.6864 29.9612 23.3312L30.1012 23.5187L30.1952 23.6462C32.5552 26.8687 30.3087 41.9437 32.1072 48.6307C32.2807 49.3007 31.1912 50.2052 30.1017 50.0577C25.9637 49.5082 26.6322 38.1587 26.5717 39.1167V39.1967C26.5717 39.3577 26.7192 40.8387 26.1577 41.5017C24.4397 43.5117 20.4357 43.7197 16.4512 41.4147C12.6142 39.1902 10.4347 35.6597 11.3977 33.2947C11.427 32.9178 11.4023 32.5386 11.3242 32.1687C10.8362 29.3147 6.12318 21.9037 6.12318 21.9037L6.12368 21.9042Z" fill="url(#paint1_linear)"/>
<path d="M15.3454 22.1122C14.6369 21.1143 15.4645 19.3101 17.1939 18.0824C18.9232 16.8548 20.8994 16.6687 21.6079 17.6666C22.3163 18.6646 21.4887 20.4688 19.7594 21.6964C18.03 22.9241 16.0538 23.1102 15.3454 22.1122Z" stroke="white" stroke-width="1.24" stroke-linecap="round"/>
<path d="M17.046 11.0327C15.8881 10.5668 15.3278 9.24872 15.7946 8.08874C16.2614 6.92876 17.5785 6.36614 18.7364 6.8321C19.8943 7.29805 20.4546 8.61613 19.9878 9.77611C19.5211 10.9361 18.204 11.4987 17.046 11.0327Z" fill="#0C022F"/>
<path d="M21.4053 19.5392V13.2412H15.5563V21.8107C15.6033 23.7067 20.5433 22.0317 21.4053 19.5392Z" fill="#9E684D"/>
<g style="mix-blend-mode:multiply">
<path d="M15.5894 17.0266V14.0181L21.3984 14.2061V15.8811C20.5629 17.3481 19.3059 17.9911 16.7189 17.5561C16.3029 17.48 15.9136 17.2976 15.5889 17.0266H15.5894Z" fill="#B7835F"/>
</g>
<path d="M22.7888 14.5139C22.9261 14.2412 22.9498 13.9252 22.8546 13.6351C22.7593 13.3451 22.553 13.1046 22.2808 12.9664H22.2208L22.5948 11.6664C23.1618 9.70688 22.0363 7.65838 20.0813 7.09038C18.1263 6.52238 16.0823 7.65038 15.5158 9.60938L14.6603 12.5644C13.8978 15.2109 15.1883 16.0949 16.9463 16.5844C17.7539 16.8181 18.6147 16.7917 19.4065 16.509C20.1983 16.2263 20.8812 15.7017 21.3583 15.0094C21.6157 15.1188 21.9046 15.1286 22.1689 15.0371C22.4333 14.9455 22.6541 14.7591 22.7888 14.5139Z" fill="#B7835F"/>
<path d="M23.2837 11.4991C23.2837 11.4051 23.9522 9.93107 23.6782 9.16757C23.4042 8.40357 22.4547 8.41057 22.4547 8.41057C22.4547 8.41057 22.2677 6.85557 20.9707 6.88257C20.9707 6.60157 20.0882 5.72357 18.9657 5.40207C18.6381 5.33746 18.2982 5.38328 17.9994 5.53238C17.7006 5.68148 17.4596 5.92543 17.3142 6.22607C17.1271 6.69052 17.1318 7.21023 17.3273 7.67121C17.5228 8.13219 17.8932 8.49681 18.3572 8.68507C18.7713 8.83841 19.2266 8.83841 19.6407 8.68507V8.72507C19.6407 8.72507 20.5562 8.34357 20.9777 8.87957C21.0531 8.9747 21.1078 9.08453 21.1384 9.20202C21.1689 9.31951 21.1746 9.44208 21.1551 9.56189C21.1355 9.6817 21.0912 9.79612 21.025 9.89783C20.9587 9.99954 20.8719 10.0863 20.7702 10.1526C20.7182 10.2366 20.6712 10.3236 20.6302 10.4136C20.4895 10.766 20.4941 11.1599 20.6431 11.509C20.7921 11.858 21.0733 12.1339 21.4252 12.2761H21.4852C21.3652 12.3766 20.7367 12.9461 20.8972 13.3551L21.3252 13.6031C21.3743 13.4039 21.4913 13.2281 21.656 13.1058C21.8207 12.9835 22.0228 12.9225 22.2277 12.9331C22.3194 12.9412 22.406 12.9787 22.4747 13.0401C22.839 12.5819 23.1135 12.0591 23.2837 11.4991Z" fill="#0C022F"/>
<path d="M15.3557 22.1184C16.0642 23.1169 18.0297 22.9289 19.7677 21.7034C21.0647 20.7784 21.8532 19.5324 21.8667 18.5474" stroke="white" stroke-width="1.24" stroke-linecap="round"/>
</g>
<defs>
<linearGradient id="paint0_linear" x1="10.1811" y1="30.4528" x2="-9.23155" y2="30.4528" gradientUnits="userSpaceOnUse">
<stop stop-color="#150773"/>
<stop offset="0.03" stop-color="#2E2384"/>
<stop offset="0.07" stop-color="#534C9C"/>
<stop offset="0.12" stop-color="#7572B2"/>
<stop offset="0.18" stop-color="#9292C5"/>
<stop offset="0.24" stop-color="#AAAED5"/>
<stop offset="0.3" stop-color="#BEC4E2"/>
<stop offset="0.38" stop-color="#CDD4EC"/>
<stop offset="0.48" stop-color="#D7E0F3"/>
<stop offset="0.62" stop-color="#DDE7F7"/>
<stop offset="1" stop-color="#DFE9F8"/>
</linearGradient>
<linearGradient id="paint1_linear" x1="32.1006" y1="32.0076" x2="5.7962" y2="32.0076" gradientUnits="userSpaceOnUse">
<stop stop-color="#150773"/>
<stop offset="0.03" stop-color="#2E2384"/>
<stop offset="0.07" stop-color="#534C9C"/>
<stop offset="0.12" stop-color="#7572B2"/>
<stop offset="0.18" stop-color="#9292C5"/>
<stop offset="0.24" stop-color="#AAAED5"/>
<stop offset="0.3" stop-color="#BEC4E2"/>
<stop offset="0.38" stop-color="#CDD4EC"/>
<stop offset="0.48" stop-color="#D7E0F3"/>
<stop offset="0.62" stop-color="#DDE7F7"/>
<stop offset="1" stop-color="#DFE9F8"/>
</linearGradient>
</defs>
</svg>
