<svg width="27" height="24" viewBox="0 0 27 24" fill="none" xmlns="http://www.w3.org/2000/svg">
<path d="M12.414 21.3793C17.594 21.3793 21.7933 17.18 21.7933 12C21.7933 6.81993 17.594 2.62067 12.414 2.62067C7.23393 2.62067 3.03467 6.81993 3.03467 12C3.03467 17.18 7.23393 21.3793 12.414 21.3793Z" fill="white"/>
<path d="M21.6297 19.2786C19.4279 22.1486 15.9556 24 12.0491 24H26.3445L21.6297 19.2786Z" fill="#F06A22"/>
<path fill-rule="evenodd" clip-rule="evenodd" d="M21.6299 19.2786C23.1788 17.2599 24.0988 14.737 24.0988 12C24.0988 5.37258 18.704 0 12.0494 0C5.39468 0 0 5.37258 0 12C0 18.6274 5.39468 24 12.0494 24C15.9559 24 19.4281 22.1486 21.6299 19.2786ZM14.7739 8.93415C14.5407 8.88225 14.3412 8.73204 14.2269 8.52219L12.2916 4.96932C12.1871 4.77745 11.9116 4.77745 11.8071 4.96932L9.87177 8.52219C9.75746 8.73204 9.55803 8.88225 9.32477 8.93415L5.45041 9.79628C5.24156 9.84274 5.16283 10.099 5.30955 10.2547L7.98579 13.0954C8.15399 13.2739 8.23432 13.5178 8.20513 13.7614L7.72152 17.797C7.69564 18.0128 7.91821 18.1724 8.11444 18.0786L11.6949 16.3662C11.9192 16.2589 12.1798 16.2582 12.4048 16.3641L16.0516 18.0826C16.2477 18.175 16.4688 18.0156 16.443 17.8003L15.9585 13.7563C15.9297 13.5157 16.0077 13.2745 16.1721 13.0964L18.7966 10.2539C18.9408 10.0976 18.8614 9.8437 18.6538 9.7975L14.7739 8.93415Z" fill="#F06A22"/>
</svg>
